<?xml version="1.0" encoding="UTF-8"?>
<svg id="Layer_1" xmlns="http://www.w3.org/2000/svg" version="1.1" viewBox="0 0 250 250">
  <path fill="#c9f31d" d="M3.6,149.6v-76.2l33.1.2c32.2.1,33.2.2,37.2,1.2,11.5,3.1,19.4,9.2,24,18.6,3.6,7.5,4.4,11.3,4.4,21.7,0,9.5-.4,11.7-3.1,18.4-2.9,7.1-7.8,13-14.2,16.9-3.7,2.2-10.6,4.5-15.6,5.2-2.1.3-11.6.5-21.1.5h-17.2v34.5c.1,0,.3,34.5.3,34.5h-8.4c-4.6,0-10.9.1-13.9.3l-5.6.3v-76.2ZM63.2,128.6c4.9-1,8.1-3.2,9.9-6.6,1.5-2.9,1.5-10.9,0-13.8-1.9-3.5-5.2-5.7-10.2-6.6-1.7-.3-9-.5-17.3-.5h-14.4v28.1h14.8c9,0,15.8-.2,17.3-.5Z"/>
  <path fill="#c9f31d" d="M142.8,212.4c7.1-7.3,13.2-13.5,13.5-13.8.4-.3,15.3-.6,45.3-.9l44.6-.3v27.7h-41.9c-23.1,0-49.3.1-58.2.3l-16.2.3,12.9-13.3Z"/>
  <path fill="#c9f31d" d="M76,210.7c7.7-7.9,17.7-18.3,22.3-23,4.6-4.7,13.5-13.9,19.7-20.4,6.2-6.5,15.7-16.3,21.2-21.9,5.4-5.6,19.5-20,31.3-32.2,11.8-12.2,25.1-26,29.7-30.6l8.4-8.5h37.8l-4.6,4.9c-2.5,2.7-9.4,9.8-15.2,15.9-12.4,12.8-34.5,35.9-68.4,71.3-13.3,13.9-27.6,28.7-31.5,32.7-4,4.1-11.3,11.6-16.3,16.8l-9.1,9.5h-19.6s-19.6,0-19.6,0l13.9-14.4Z"/>
  <path fill="#c9f31d" d="M182.8,173.1c0-.1,2.5-2.9,5.6-6.1,8.1-8.5,41.6-43.3,50.8-52.7l7.8-8.1-.3,9.8c-.2,5.4-.3,20.5-.3,33.6v23.8h-31.8c-17.5,0-31.8-.1-31.8-.3Z"/>
  <path fill="#c9f31d" d="M113.9,103.9v-48.1H3.1v-31.5h121.9c111,0,121.9,0,121.6.8-.1.4-.3,7.5-.3,15.8v15h-104l.3,33.4.3,33.3-14.5,14.8-14.5,14.8v-48.1Z"/>
</svg>
